<?xml version="1.0" encoding="utf-8"?>
<svg width="706.9998px" height="345.42706px" viewBox="0 0 706.9998 345.42706" version="1.1" xmlns:xlink="http://www.w3.org/1999/xlink" xmlns="http://www.w3.org/2000/svg">
  <defs>
    <path d="M-1.44065e-06 0L345.427 0L345.427 345.427L-1.44065e-06 345.427L-1.44065e-06 0Z" id="path_1" />
    <clipPath id="mask_1">
      <use xlink:href="#path_1" />
    </clipPath>
  </defs>
  <g id="Group">
    <g id="library-book-svgrepo-com">
      <path d="M-1.44065e-06 0L345.427 0L345.427 345.427L-1.44065e-06 345.427L-1.44065e-06 0Z" id="Background" fill="#FFFFFF" fill-opacity="0" fill-rule="evenodd" stroke="none" />
      <g clip-path="url(#mask_1)">
        <path d="M339.674 268.257L302.639 268.257L315.515 264.805C316.666 264.23 318.392 263.655 318.967 261.929C319.542 260.203 320.117 259.053 319.542 257.327L311.001 225.627C311.048 225.067 311.022 224.505 310.913 223.964L305.161 201.53C304.888 200.984 304.483 200.309 304.012 199.689L275.234 92.8755C275.387 92.0895 275.403 91.2792 275.249 90.5094L269.497 68.0754C269.143 67.3662 268.569 66.44 267.912 65.6978L259.717 35.2878C259.142 32.4114 255.691 30.6857 252.814 31.2614L197.017 46.2177C194.141 46.7927 192.415 50.2441 192.991 53.1204L205.397 99.2862C200.783 96.9882 195.594 95.6871 190.114 95.6871L23.2969 95.6871C20.9962 95.6871 19.2705 96.8378 18.1198 99.1385C16.9691 100.864 16.9691 103.165 18.1198 104.891L25.0226 115.82C30.1997 125.023 30.1997 135.953 25.0226 145.157L19.9365 153.21L6.03994 153.21C3.73924 153.21 2.01354 154.361 0.862853 156.662C-0.287836 158.387 -0.287836 160.688 0.862853 162.414L7.76564 173.343C12.9427 182.546 12.9427 193.476 7.76564 202.68L0.862853 213.61C-0.287836 215.336 -0.287836 217.637 0.862853 219.362C2.01354 221.088 3.73924 222.239 6.03994 222.239L19.5732 222.239L25.0226 230.867C30.1997 240.071 30.1997 251 25.0226 260.204L19.9365 268.257L6.03994 268.257C2.58855 268.257 0.287845 270.558 0.287845 274.009L0.287845 308.523C0.287845 311.975 2.58855 314.275 6.03994 314.275L339.674 314.275C343.126 314.275 345.426 311.975 345.426 308.523L345.426 274.009C345.427 270.558 343.126 268.257 339.674 268.257L339.674 268.257ZM197.716 211.593C203.683 205.381 207.371 196.965 207.371 187.724C207.371 178.483 203.683 170.067 197.716 163.855C206.468 161.867 213.985 156.535 218.831 149.279L238.662 223.074L243.61 242.371C243.744 242.638 243.893 242.896 244.056 243.145L250.804 268.257L215.777 268.257C221.271 262.139 224.628 254.067 224.628 245.248C224.628 228.876 213.072 215.081 197.716 211.593L197.716 211.593ZM262.018 88.2094L217.725 100.289L214.849 89.3601L259.142 77.2802L262.018 88.2094L262.018 88.2094ZM265.099 99.1001L291.542 199.149L247.056 211.074L224.382 126.164C223.99 122.838 223.126 119.651 221.849 116.678L220.441 111.404L265.099 99.1001L265.099 99.1001ZM250.514 222.239L294.617 210.783L297.506 221.712L253.39 233.744L250.514 222.239L250.514 222.239ZM262.018 267.107L255.984 244.511L300.386 232.61L306.311 255.027L262.018 267.107L262.018 267.107ZM250.514 43.9163L256.244 65.5974L211.418 77.6125L205.646 55.9962L250.514 43.9163L250.514 43.9163ZM34.8018 109.493L33.6511 107.192L190.114 107.192C199.597 107.192 207.787 113.006 211.298 121.245L212.94 127.355C213.057 128.289 213.123 129.237 213.123 130.201C213.123 142.856 202.769 153.21 190.114 153.21L172.857 153.21L33.6511 153.21L34.8018 150.909C42.2796 138.255 42.2796 122.148 34.8018 109.493L34.8018 109.493ZM17.5448 167.016L16.3941 164.716L23.2969 164.716L172.857 164.716C185.512 164.716 195.867 175.07 195.867 187.725C195.867 200.38 185.512 210.734 172.857 210.734L23.2969 210.734L16.3941 210.734L17.5448 208.433C25.0226 195.778 25.0226 179.671 17.5448 167.016L17.5448 167.016ZM34.8018 224.539L33.6511 222.239L172.857 222.239L190.114 222.239C202.769 222.239 213.123 232.593 213.123 245.248C213.123 257.903 202.769 268.257 190.114 268.257L33.6511 268.257L34.8018 265.956C42.2796 253.301 42.2796 237.194 34.8018 224.539L34.8018 224.539ZM333.922 302.771L11.792 302.771L11.792 279.762L23.2969 279.762L190.114 279.762L258.567 279.762L259.718 279.762L333.923 279.762L333.923 302.771L333.922 302.771ZM63.5629 251L190.114 251C193.565 251 195.866 248.699 195.866 245.248C195.866 241.796 193.565 239.496 190.114 239.496L63.5629 239.496C60.1115 239.496 57.8108 241.796 57.8108 245.248C57.8108 248.699 60.1115 251 63.5629 251L63.5629 251ZM46.306 193.477L172.857 193.477C176.308 193.477 178.609 191.176 178.609 187.725C178.609 184.273 176.308 181.973 172.857 181.973L46.306 181.973C42.8546 181.973 40.5539 184.273 40.5539 187.725C40.5539 191.176 42.8546 193.477 46.306 193.477L46.306 193.477ZM63.5629 135.954L190.114 135.954C193.565 135.954 195.866 133.653 195.866 130.202C195.866 126.75 193.565 124.45 190.114 124.45L63.5629 124.45C60.1115 124.45 57.8108 126.75 57.8108 130.202C57.8108 133.653 60.1115 135.954 63.5629 135.954L63.5629 135.954ZM241.885 123.874L259.717 190.601C260.868 192.902 263.169 194.628 265.469 194.628C265.469 194.628 266.044 194.628 266.62 194.052C269.496 193.477 271.222 190.026 270.646 187.15L252.814 120.998C252.239 118.122 248.788 116.396 245.912 116.972C243.035 117.548 241.31 120.998 241.885 123.874L241.885 123.874Z" id="Group" fill="#7645D6" stroke="none" />
      </g>
    </g>
    <g id="Library-" fill="#000000" fill-opacity="0.87058824" transform="translate(373.99985 89)">
      <path d="M125.271 85.4189Q130.691 78.3145 130.691 65.6191L130.691 64.8379Q130.691 51.9473 125.198 44.8428Q119.705 37.7383 110.037 37.7383Q102.078 37.7383 97.1953 43.4512L97.1953 16.5469L83.084 16.5469L83.084 91.5469L95.7793 91.5469L96.4141 85.9316Q101.541 92.5234 110.135 92.5234Q119.852 92.5234 125.271 85.4189ZM57.9727 25.043Q57.9727 21.8691 60.0967 19.8184Q62.2207 17.7676 65.8828 17.7676Q69.4961 17.7676 71.6445 19.8184Q73.793 21.8691 73.793 25.043Q73.793 28.2656 71.6201 30.3164Q69.4473 32.3672 65.8828 32.3672Q62.3184 32.3672 60.1455 30.3164Q57.9727 28.2656 57.9727 25.043ZM20.9961 79.7793L52.0996 79.7793L52.0996 91.5469L6.34766 91.5469L6.34766 20.4531L20.9961 20.4531L20.9961 79.7793ZM167.57 51.9473Q164.689 51.5566 162.492 51.5566Q154.484 51.5566 151.994 56.9766L151.994 91.5469L137.883 91.5469L137.883 38.7148L151.213 38.7148L151.604 45.0137Q155.852 37.7383 163.371 37.7383Q165.715 37.7383 167.766 38.373L167.57 51.9473ZM202.057 86.8105Q202.496 89.6426 203.473 91.5469L217.73 91.5469L217.73 90.7168Q215.68 86.8594 215.631 79.3398L215.631 56.4395Q215.631 47.5527 209.894 42.6455Q204.156 37.7383 194.391 37.7383Q187.945 37.7383 182.77 39.96Q177.594 42.1816 174.762 46.0879Q171.93 49.9941 171.93 54.584L186.041 54.584Q186.041 51.6055 188.067 49.8965Q190.094 48.1875 193.658 48.1875Q197.711 48.1875 199.591 50.3848Q201.471 52.582 201.471 56.2441L201.471 59.2715L194.977 59.2715Q183.209 59.3203 176.983 63.8125Q170.758 68.3047 170.758 76.7031Q170.758 83.5391 175.86 88.0312Q180.963 92.5234 188.727 92.5234Q196.93 92.5234 202.057 86.8105ZM254.658 51.9473Q251.777 51.5566 249.58 51.5566Q241.572 51.5566 239.082 56.9766L239.082 91.5469L224.971 91.5469L224.971 38.7148L238.301 38.7148L238.691 45.0137Q242.939 37.7383 250.459 37.7383Q252.803 37.7383 254.854 38.373L254.849 38.7148L269.857 38.7148L279.672 71.5762L289.438 38.7148L304.574 38.7148L283.334 99.75L282.162 102.533Q277.426 112.885 266.537 112.885Q263.461 112.885 260.287 111.957L260.287 101.264L262.436 101.312Q266.439 101.312 268.417 100.092Q270.395 98.8711 271.518 96.0391L273.178 91.6934L254.842 39.2007L254.658 51.9473ZM58.8027 91.5469L58.8027 38.7148L72.9629 38.7148L72.9629 91.5469L58.8027 91.5469ZM114.041 52.8994Q116.58 56.5859 116.58 64.5938Q116.58 71.1855 115.555 74.4082Q113.406 81.1465 106.57 81.1465Q99.7832 81.1465 97.1953 75.5801L97.1953 54.7305Q99.7344 49.2129 106.473 49.2129Q111.502 49.2129 114.041 52.8994ZM197.564 80.3408Q194.928 81.7324 191.803 81.7324Q188.58 81.7324 186.725 80.0234Q184.869 78.3145 184.869 75.6777L184.918 74.8477Q185.602 67.5234 196.197 67.5234L201.471 67.5234L201.471 76.6055Q200.201 78.9492 197.564 80.3408Z" />
    </g>
    <g id="Founded-in-1995" transform="translate(354.99985 220)">
      <path d="M110.504 24.0679Q107.623 27.7666 107.623 33.8457L107.623 34.1875Q107.623 40.2422 110.516 44.002Q113.409 47.7617 117.999 47.7617Q122.833 47.7617 125.543 44.4414L125.763 47.2734L129.913 47.2734L129.913 9.77344L125.396 9.77344L125.396 23.543Q122.687 20.3691 118.048 20.3691Q113.385 20.3691 110.504 24.0679ZM162.191 24.0679Q159.311 27.7666 159.311 33.8457L159.311 34.1875Q159.311 40.2422 162.204 44.002Q165.097 47.7617 169.687 47.7617Q174.521 47.7617 177.23 44.4414L177.45 47.2734L181.601 47.2734L181.601 9.77344L177.084 9.77344L177.084 23.543Q174.374 20.3691 169.735 20.3691Q165.072 20.3691 162.191 24.0679ZM199.51 13.8506Q199.51 12.752 200.181 11.9951Q200.853 11.2383 202.171 11.2383Q203.489 11.2383 204.173 11.9951Q204.856 12.752 204.856 13.8506Q204.856 14.9492 204.173 15.6816Q203.489 16.4141 202.171 16.4141Q200.853 16.4141 200.181 15.6816Q199.51 14.9492 199.51 13.8506ZM288.625 34.3584Q290.591 33.333 292.007 31.6484Q291.738 37.752 288.735 40.5718Q285.732 43.3916 280.142 43.4893L279.189 43.4893L279.189 47.2979L280.068 47.2979Q288.345 47.1758 292.446 42.4028Q296.548 37.6299 296.548 27.2539L296.548 25.9355Q296.548 19.124 293.508 15.1812Q290.469 11.2383 285.195 11.2383Q281.875 11.2383 279.385 12.752Q276.895 14.2656 275.54 17.1221Q274.185 19.9785 274.185 23.543Q274.185 26.8633 275.43 29.6099Q276.675 32.3564 278.958 33.8701Q281.24 35.3838 284.316 35.3838Q286.66 35.3838 288.625 34.3584ZM318.583 31.6484Q317.167 33.333 315.202 34.3584Q313.236 35.3838 310.893 35.3838Q307.816 35.3838 305.534 33.8701Q303.251 32.3564 302.006 29.6099Q300.761 26.8633 300.761 23.543Q300.761 19.9785 302.116 17.1221Q303.471 14.2656 305.961 12.752Q308.451 11.2383 311.771 11.2383Q317.045 11.2383 320.084 15.1812Q323.124 19.124 323.124 25.9355L323.124 27.2539Q323.124 37.6299 319.022 42.4028Q314.921 47.1758 306.645 47.2979L305.766 47.2979L305.766 43.4893L306.718 43.4893Q312.309 43.3916 315.312 40.5718Q318.314 37.752 318.583 31.6484ZM262.965 47.2734L258.424 47.2734L258.424 17.1709L249.317 20.5156L249.317 16.4141L262.257 11.5557L262.965 11.5557L262.965 47.2734ZM23.7305 31.5752L8.81348 31.5752L8.81348 47.2734L4.12598 47.2734L4.12598 11.7266L26.1475 11.7266L26.1475 15.584L8.81348 15.584L8.81348 27.7422L23.7305 27.7422L23.7305 31.5752ZM331.731 11.7266L329.925 29.4512L333.538 30.3789L334.734 29.4023Q336.419 28.1084 339.373 28.1084Q342.596 28.1084 344.537 30.269Q346.478 32.4297 346.478 35.9941Q346.478 39.7783 344.683 41.9268Q342.889 44.0752 339.739 44.0752Q336.858 44.0752 335.101 42.5249Q333.343 40.9746 332.928 37.9229L328.655 37.9229Q329.07 42.5371 332.049 45.1494Q335.027 47.7617 339.739 47.7617Q345.062 47.7617 348.028 44.6001Q350.994 41.4385 350.994 35.9453Q350.994 30.4766 348.138 27.2661Q345.281 24.0557 340.423 24.0557Q337.103 24.0557 334.49 25.5938L335.564 15.9014L349.944 15.9014L349.944 11.7266L331.731 11.7266ZM289.236 30.2568Q287.319 31.6484 285.049 31.6484Q282.119 31.6484 280.374 29.2925Q278.628 26.9365 278.628 23.2988Q278.628 19.5635 280.435 17.2808Q282.241 14.998 285.22 14.998Q288.174 14.998 290.103 17.7812Q292.031 20.5645 292.031 25.0078L292.031 26.8145Q291.152 28.8652 289.236 30.2568ZM311.625 31.6484Q313.896 31.6484 315.812 30.2568Q317.729 28.8652 318.607 26.8145L318.607 25.0078Q318.607 20.5645 316.679 17.7812Q314.75 14.998 311.796 14.998Q308.817 14.998 307.011 17.2808Q305.204 19.5635 305.204 23.2988Q305.204 26.9365 306.95 29.2925Q308.695 31.6484 311.625 31.6484ZM28.3584 33.8213Q28.3584 29.9395 29.8843 26.8389Q31.4102 23.7383 34.1323 22.0537Q36.8545 20.3691 40.3457 20.3691Q45.7412 20.3691 49.0737 24.1045Q52.4062 27.8398 52.4062 34.041L52.4062 34.3584Q52.4062 38.2158 50.9292 41.2798Q49.4521 44.3438 46.7056 46.0527Q43.959 47.7617 40.3945 47.7617Q35.0234 47.7617 31.6909 44.0264Q28.3584 40.291 28.3584 34.1387L28.3584 33.8213ZM86.9062 20.8574L87.0527 24.1777Q90.0801 20.3691 94.9629 20.3691Q103.337 20.3691 103.41 29.8174L103.41 47.2734L98.8936 47.2734L98.8936 29.793Q98.8691 26.9365 97.5874 25.5693Q96.3057 24.2021 93.5957 24.2021Q91.3984 24.2021 89.7383 25.374Q88.0781 26.5459 87.1504 28.4502L87.1504 47.2734L82.6338 47.2734L82.6338 20.8574L86.9062 20.8574ZM146.382 47.7617Q141.011 47.7617 137.642 44.2339Q134.272 40.7061 134.272 34.7979L134.272 33.9678Q134.272 30.0371 135.774 26.9487Q137.275 23.8604 139.973 22.1147Q142.671 20.3691 145.82 20.3691Q150.972 20.3691 153.828 23.7627Q156.685 27.1562 156.685 33.4795L156.685 35.3594L138.789 35.3594Q138.887 39.2656 141.072 41.6704Q143.257 44.0752 146.626 44.0752Q149.019 44.0752 150.679 43.0986Q152.339 42.1221 153.584 40.5107L156.343 42.6592Q153.022 47.7617 146.382 47.7617ZM214.538 24.1777L214.392 20.8574L210.119 20.8574L210.119 47.2734L214.636 47.2734L214.636 28.4502Q215.563 26.5459 217.224 25.374Q218.884 24.2021 221.081 24.2021Q223.791 24.2021 225.073 25.5693Q226.354 26.9365 226.379 29.793L226.379 47.2734L230.896 47.2734L230.896 29.8174Q230.822 20.3691 222.448 20.3691Q217.565 20.3691 214.538 24.1777ZM65.1396 47.7617Q70.2422 47.7617 72.8789 44.6611L72.9766 47.2734L77.2734 47.2734L77.2734 20.8574L72.7568 20.8574L72.7568 40.0713Q71.0479 43.9287 65.8721 43.9287Q60.9893 43.9287 60.9893 37.9229L60.9893 20.8574L56.4727 20.8574L56.4727 38.0449Q56.4971 42.8545 58.7065 45.3081Q60.916 47.7617 65.1396 47.7617ZM204.393 47.2734L199.876 47.2734L199.876 20.8574L204.393 20.8574L204.393 47.2734ZM32.8994 34.3584Q32.8994 38.7529 34.938 41.4141Q36.9766 44.0752 40.3945 44.0752Q43.8369 44.0752 45.8633 41.3774Q47.8896 38.6797 47.8896 33.8213Q47.8896 29.4756 45.8267 26.7778Q43.7637 24.0801 40.3457 24.0801Q37.001 24.0801 34.9502 26.7412Q32.8994 29.4023 32.8994 34.3584ZM145.82 24.0801Q143.086 24.0801 141.23 26.0698Q139.375 28.0596 138.936 31.6484L152.168 31.6484L152.168 31.3066Q151.973 27.8643 150.312 25.9722Q148.652 24.0801 145.82 24.0801ZM113.995 41.3896Q112.14 38.8506 112.14 34.3584Q112.14 29.3291 113.995 26.7656Q115.851 24.2021 119.171 24.2021Q123.37 24.2021 125.396 27.9375L125.396 40.0713Q123.419 43.9287 119.122 43.9287Q115.851 43.9287 113.995 41.3896ZM165.683 41.3896Q163.827 38.8506 163.827 34.3584Q163.827 29.3291 165.683 26.7656Q167.538 24.2021 170.858 24.2021Q175.058 24.2021 177.084 27.9375L177.084 40.0713Q175.106 43.9287 170.81 43.9287Q167.538 43.9287 165.683 41.3896Z" />
    </g>
  </g>
</svg>